/* XPM */
static char * winmanag32_xpm[] = {
"32 32 85 1",
" 	c None",
".	c #FFFFFF",
"+	c #FDFDFD",
"@	c #726A95",
"#	c #F0F1EC",
"$	c #2B1974",
"%	c #625598",
"&	c #41327A",
"*	c #8378AD",
"=	c #FBFBFB",
"-	c #C0BBD5",
";	c #A39CC3",
">	c #CBCACD",
",	c #544787",
"'	c #C2BDD7",
")	c #271571",
"!	c #44357B",
"~	c #F5F3F8",
"{	c #2F1E75",
"]	c #473A7F",
"^	c #BFBAD3",
"/	c #6A5E9D",
"(	c #FCFBFD",
"_	c #6F659A",
":	c #C1BCD6",
"<	c #AEA7C9",
"[	c #322179",
"}	c #3A2B7C",
"|	c #5B4D93",
"1	c #332379",
"2	c #2E1D75",
"3	c #C9C5DB",
"4	c #A39CC2",
"5	c #2D1B75",
"6	c #B1AACB",
"7	c #40317A",
"8	c #584B91",
"9	c #F9F8FB",
"0	c #55498A",
"a	c #392A7B",
"b	c #F9F9F9",
"c	c #CCCBCE",
"d	c #F1F2EB",
"e	c #A7A5B2",
"f	c #4C3F82",
"g	c #6D6399",
"h	c #635698",
"i	c #7F7B91",
"j	c #53458E",
"k	c #514487",
"l	c #71679B",
"m	c #3D2E7E",
"n	c #8479AD",
"o	c #5A4C92",
"p	c #5F5296",
"q	c #3C2D7C",
"r	c #F9F9FB",
"s	c #EDEEE9",
"t	c #8479AC",
"u	c #554987",
"v	c #544886",
"w	c #A49DC4",
"x	c #261470",
"y	c #312077",
"z	c #8B81B3",
"A	c #8479AE",
"B	c #BDB7D3",
"C	c #3A2B7D",
"D	c #4F418C",
"E	c #322178",
"F	c #37267C",
"G	c #CAC9CC",
"H	c #645798",
"I	c #34237A",
"J	c #615690",
"K	c #473885",
"L	c #A59EC4",
"M	c #746C96",
"N	c #C0BFC4",
"O	c #544788",
"P	c #453781",
"Q	c #F1F2ED",
"R	c #736C95",
"S	c #4D4182",
"T	c #B2ABCC",
"                                ",
"                                ",
"                                ",
"                                ",
"  ivg_lJf]&&&&&&&&&&&&&&&&&&&&7!",
"  S8~(.<2/':-------------------^",
"  qo9..61Kh%%%%%%%%%%%%%%%%%%%%H",
"  a|r..TEjAn*******************t",
"  }DB'3zypLw;;;;;;;;;;;;;;;;;;;4",
"  mI))x5F[$$$$$$$$$$$$$$$$$$$$${",
"  C0M@@@@@@@@@@@@@@@@@@@@@@@@@@R",
"  PedQ#########################s",
"  kN...........................=",
"  Oc...........................=",
"  ,>...........................=",
"  ,>...........................=",
"  ,>...........................=",
"  ,>...........................=",
"  ,>...........................=",
"  ,>...........................=",
"  ,>...........................=",
"  ,>...........................=",
"  ,>...........................=",
"  ,>...........................=",
"  ,>...........................=",
"  ,>...........................=",
"  ,>...........................=",
"  ,>...........................=",
"  ,>...........................=",
"  ,>...........................=",
"  ,>...........................=",
"  uG+++++++++++++++++++++++++++b"};
